<?xml version="1.0" encoding="UTF-8" standalone="no"?>
<svg
   viewBox="0 0 841.88976 311.81102"
   version="1.1"
   id="svg55"
   sodipodi:docname="geneial_logo-color_fixed.svg"
   inkscape:version="1.1.1 (3bf5ae0d25, 2021-09-20)"
   inkscape:export-filename="C:\Users\chris\Downloads\Geneial_logo_white.png"
   inkscape:export-xdpi="800"
   inkscape:export-ydpi="800"
   xmlns:inkscape="http://www.inkscape.org/namespaces/inkscape"
   xmlns:sodipodi="http://sodipodi.sourceforge.net/DTD/sodipodi-0.dtd"
   xmlns="http://www.w3.org/2000/svg"
   xmlns:svg="http://www.w3.org/2000/svg">
  <defs
     id="defs59" />
  <sodipodi:namedview
     id="namedview57"
     pagecolor="#ffffff"
     bordercolor="#999999"
     borderopacity="1"
     inkscape:pageshadow="0"
     inkscape:pageopacity="1"
     inkscape:pagecheckerboard="0"
     showgrid="false"
     inkscape:zoom="1.5382061"
     inkscape:cx="327.65439"
     inkscape:cy="153.10042"
     inkscape:window-width="1920"
     inkscape:window-height="986"
     inkscape:window-x="-11"
     inkscape:window-y="-11"
     inkscape:window-maximized="1"
     inkscape:current-layer="svg55" />
  <path
     d="M761.66212,158.90554V44.91789H742.99127v30.4447H694.586a59.61163,59.61163,0,0,1-1.29238-15.92006h30.90608a5.51774,5.51774,0,0,0,0-11.03547H694.9854a61.4492,61.4492,0,0,1,6.6525-15.92276h48.07861a5.51773,5.51773,0,1,0,0-11.03547H709.82593a44.72372,44.72372,0,0,1,3.44067-3.39739A5.51691,5.51691,0,0,0,706.135,9.63205c-16.68522,14.10955-39.84192,53.224-8.06645,100.27026,10.02968,14.85013,26.77754,30.486,44.92268,46.96153V259.2179H820.908a45.49019,45.49019,0,0,1-2.37949,16.84417H768.94237a5.51774,5.51774,0,1,0,0,11.03547H813.257a67.33382,67.33382,0,0,1-5.27289,7.35518,5.51731,5.51731,0,1,0,8.5083,7.02649,72.466,72.466,0,0,0,10.79046-17.34967,5.41931,5.41931,0,0,0,.33105-.76566C846.1962,238.8529,801.74062,195.37431,761.66212,158.90554Zm-18.67085-16.98747c-10.794-9.93236-20.70935-19.49225-28.388-28.56179h28.388Zm0-39.59725H706.80051c-.15593,0-.30276.03334-.45549.046a89.5493,89.5493,0,0,1-8.39666-15.96872h45.04291Zm18.67085,71.53554c6.68887,6.164,13.22855,12.35529,19.39256,18.56948H761.66212Zm0,74.32607V203.46131h29.85635a189.52373,189.52373,0,0,1,13.64867,16.84417H779.42822a5.51773,5.51773,0,1,0,0,11.03547h31.97753a5.469,5.469,0,0,0,.74747-.07544,74.685,74.685,0,0,1,7.043,16.91692Z"
     fill="#00acc1"
     id="path35" />
  <path
     d="M175.59909,202.88914c0-32.85315,24.69778-59.18228,57.08483-59.18228,30.291,0,54.291,26.09743,54.291,58.48448,0,3.26268-.4661,6.75707-.4661,6.98877H194.0059c2.79659,22.60169,20.27121,36.81632,41.24291,36.81632,12.81364,0,25.63-4.42658,34.94924-12.11584l7.68926,13.048a69.426,69.426,0,0,1-42.8729,14.91243C202.85906,261.84106,175.59909,238.77327,175.59909,202.88914Zm93.90116-7.22317c-1.86439-20.969-17.94341-36.11583-37.74852-36.11583-19.339,0-35.18364,14.91243-37.74583,36.11583Z"
     fill="#064442"
     id="path37" />
  <path
     d="M307.48586,146.036h17.709v19.34171c7.921-13.74988,22.6017-21.67085,39.37582-21.67085,28.42927,0,41.01121,17.24157,41.01121,47.06643v68.73728h-17.709V193.10378c0-20.969-7.68926-32.15535-28.19486-32.15535-20.27121,0-34.48315,15.84463-34.48315,34.71754v63.8446h-17.709Z"
     fill="#064442"
     id="path39" />
  <path
     d="M424.2258,202.88914c0-32.85315,24.69779-59.18228,57.08484-59.18228,30.291,0,54.29094,26.09743,54.29094,58.48448,0,3.26268-.4661,6.75707-.4661,6.98877H442.63262c2.79658,22.60169,20.2712,36.81632,41.2429,36.81632,12.81365,0,25.63-4.42658,34.94924-12.11584l7.68927,13.048a69.426,69.426,0,0,1-42.8729,14.91243C451.48578,261.84106,424.2258,238.77327,424.2258,202.88914ZM518.127,195.666c-1.86439-20.969-17.94071-36.11583-37.74582-36.11583-19.34171,0-35.18633,14.91243-37.74852,36.11583Z"
     fill="#064442"
     id="path41" />
  <path
     d="M553.316,114.11505a11.736,11.736,0,0,1,11.64974-11.88414,11.93322,11.93322,0,0,1,11.88415,11.88414,11.73512,11.73512,0,0,1-11.88415,11.64975A11.53722,11.53722,0,0,1,553.316,114.11505Zm2.79658,31.921h17.709V259.51057h-17.709Z"
     fill="#064442"
     id="path43" />
  <path
     d="M594.3245,202.88914c0-33.31925,22.13559-59.18228,53.59314-59.18228,18.17242,0,34.25144,7.45622,42.6385,22.13694V146.036h17.709V259.51057h-17.709V239.70546c-8.38706,14.91243-24.46608,22.1356-42.6385,22.1356C616.46009,261.84106,594.3245,235.745,594.3245,202.88914Zm96.23164,0c0-23.76559-17.00852-41.94071-38.678-41.94071-22.60169,0-39.37851,17.709-39.37851,41.94071,0,24,16.77682,41.709,39.37851,41.709C673.54762,244.59814,690.55614,226.65742,690.55614,202.88914Z"
     fill="#064442"
     id="path45" />
  <polygon
     points="742.991 259.511 761.662 259.511 761.662 173.856 742.991 156.864 742.991 259.511"
     fill="#064442"
     id="polygon47" />
  <polygon
     points="742.991 44.918 742.991 141.918 761.662 158.906 761.662 44.918 742.991 44.918"
     fill="#064442"
     id="polygon49" />
  <path
     d="M89.66455,159.55013a21.57773,21.57773,0,1,0,20.07611,29.44647h36.285a7.89554,7.89554,0,1,0,0-15.79108H109.721A21.56938,21.56938,0,0,0,89.66455,159.55013Z"
     fill="#064442"
     id="path51" />
  <path
     d="M135.74609,221.06423a58.33026,58.33026,0,0,1-47.06781,23.76562c-33.78534,0-59.41534-27.26-59.41534-60.8136,0-33.55231,25.63-60.815,59.41534-60.815,16.31073,0,29.82489,5.12707,41.24292,15.37854l11.18366-12.815c-14.212-12.58191-32.15534-19.572-52.42658-19.572-44.969,0-78.757,34.48449-78.757,77.82348s33.788,77.82483,78.757,77.82483c27.49439,0,51.26264-13.048,65.24292-34.01977V198.97749H135.74609Z"
     fill="#064442"
     id="path53" />
  <rect
     style="fill:#195678"
     id="rect163"
     width="18.670731"
     height="31.937929"
     x="742.99127"
     y="141.91808" />
  <rect
     style="fill:#064442"
     id="rect1123"
     width="18.670849"
     height="31.938284"
     x="742.99127"
     y="141.91808" />
</svg>
